<svg width="16" height="16" viewBox="0 0 16 16" fill="none" xmlns="http://www.w3.org/2000/svg">
<path d="M13.1838 2.81312C12.158 1.78803 10.8513 1.0901 9.42891 0.80754C8.00652 0.524985 6.53229 0.670499 5.19259 1.22569C3.85289 1.78088 2.70787 2.72081 1.90229 3.92666C1.09672 5.13251 0.666748 6.55014 0.666748 8.00033C0.666748 9.45051 1.09672 10.8681 1.90229 12.074C2.70787 13.2798 3.85289 14.2198 5.19259 14.775C6.53229 15.3302 8.00652 15.4757 9.42891 15.1931C10.8513 14.9106 12.158 14.2126 13.1838 13.1875C14.5593 11.8117 15.3321 9.94585 15.3321 8.00033C15.3321 6.0548 14.5593 4.18894 13.1838 2.81312Z" fill="#8EA5BA"/>
<path d="M5.66431 5.66797L10.3304 10.3328" stroke="white" stroke-width="1.4" stroke-miterlimit="10" stroke-linecap="round"/>
<path d="M10.3304 5.66797L5.66431 10.3328" stroke="white" stroke-width="1.4" stroke-miterlimit="10" stroke-linecap="round"/>
</svg>
