<svg xmlns="http://www.w3.org/2000/svg" viewBox="0 0 24 24">
  <g>
    <path d="M12,1A11,11,0,1,0,23,12,10.968,10.968,0,0,0,12,1Z" style="fill: none;stroke: #329FCF;stroke-miterlimit: 10;stroke-width: 1.29999995231628px"/>
    <path d="M8.7,11.264a4.676,4.676,0,0,1,1.763-.222c.828.1.538.82.431,1.094-.5,1.269-1.469,3.837-1.142,5.329s2.227,1.306,2.394,1.292a7.536,7.536,0,0,0,2.354-.693l.1-.7a3.163,3.163,0,0,1-1.935.053c-.843-.421.024-2.413.292-3.141.34-.928,1.109-2.665.434-3.569-.745-1-1.848-1.109-3.359-.679a5.635,5.635,0,0,0-1.132.436Z" style="fill: #329FCF"/>
    <circle cx="13.067" cy="6.824" r="1.66" style="fill: #329FCF"/>
  </g>
</svg>
